<svg width="25" height="34" viewBox="0 0 25 34" fill="none" xmlns="http://www.w3.org/2000/svg">
<path opacity="0.44" d="M1.27779 31.1049L1.2813 31.1067L1.28481 31.1049C1.42519 31.0646 6.9401 29.4292 11.1688 24.8969C12.4813 23.4897 13.671 21.8017 14.536 19.7944C15.8433 16.7676 16.4135 13.0144 15.5608 8.40134C15.3607 7.30993 15.0782 6.1694 14.708 4.97799C14.0746 2.94433 14.043 1.15632 13.9079 0C12.5603 0.919444 11.0337 2.11437 9.50893 3.64444C8.43332 4.7218 7.35946 5.96762 6.34878 7.39942C5.41354 8.72419 4.63096 10.0718 3.97647 11.4194C2.52536 14.4093 1.71119 17.394 1.2813 20.1278C0.939453 22.3016 0.439453 24.8969 1.27779 31.1049Z" fill="#2F5E4E"/>
<path opacity="0.8" d="M1.28147 31.1069C4.53461 19.8156 12.5903 18.4785 22.3357 20.6473C16.9296 25.5498 11.1901 32.5246 1.28147 31.1086V31.1069Z" fill="#2F5E4E"/>
<path opacity="0.5" d="M1.28154 31.1065C4.60136 22.0191 15.9646 25.5355 23.843 25.5355C18.9791 32.8191 9.10734 36.653 1.28154 31.1065Z" fill="#2F5E4E"/>
<path opacity="0.25" d="M1.28131 31.1068C1.35676 29.2206 1.08829 19.5383 9.01411 12.3547C14.9677 6.96089 22.6075 6.95036 24.9395 5.84668C20.6914 7.85577 25.8993 30.6506 1.28131 31.1068Z" fill="#2F5E4E"/>
</svg>
